<svg width="180" height="180" viewBox="0 0 180 180" fill="none" xmlns="http://www.w3.org/2000/svg">
<rect width="180" height="180" fill="#F26522"/>
<path d="M41.715 60.82H52.425V86.32H52.935L77.84 60.82H92.29L64.155 88.615L94.16 121H79.115L53.02 91.42H52.425V121H41.715V60.82ZM106.363 121L120.813 98.73L120.643 98.56C120.02 98.9 119.17 99.155 118.093 99.325C117.073 99.495 116.053 99.58 115.033 99.58C112.37 99.58 109.933 99.07 107.723 98.05C105.513 97.03 103.587 95.6417 101.943 93.885C100.357 92.1283 99.1101 90.0883 98.2035 87.765C97.3535 85.4417 96.9285 82.9767 96.9285 80.37C96.9285 77.2533 97.4668 74.42 98.5435 71.87C99.6201 69.32 101.093 67.1667 102.963 65.41C104.89 63.5967 107.157 62.2083 109.763 61.245C112.427 60.2817 115.288 59.8 118.348 59.8C121.465 59.8 124.327 60.2817 126.933 61.245C129.597 62.1517 131.863 63.4833 133.733 65.24C135.66 66.9967 137.133 69.15 138.153 71.7C139.23 74.25 139.768 77.1117 139.768 80.285C139.768 83.4583 139.23 86.3483 138.153 88.955C137.133 91.505 135.802 94.1117 134.158 96.775L118.773 121H106.363ZM129.058 80.455C129.058 78.925 128.775 77.5083 128.208 76.205C127.642 74.845 126.848 73.6833 125.828 72.72C124.865 71.7 123.703 70.9067 122.343 70.34C121.04 69.7733 119.623 69.49 118.093 69.49C116.563 69.49 115.118 69.7733 113.758 70.34C112.455 70.9067 111.293 71.7 110.273 72.72C109.31 73.6833 108.545 74.845 107.978 76.205C107.412 77.5083 107.128 78.925 107.128 80.455C107.128 81.985 107.412 83.43 107.978 84.79C108.545 86.0933 109.31 87.255 110.273 88.275C111.293 89.2383 112.455 90.0033 113.758 90.57C115.118 91.1367 116.563 91.42 118.093 91.42C119.623 91.42 121.04 91.1367 122.343 90.57C123.703 90.0033 124.865 89.2383 125.828 88.275C126.848 87.255 127.642 86.0933 128.208 84.79C128.775 83.43 129.058 81.985 129.058 80.455Z" fill="white"/>
</svg>
